# xmcd
#
# Track frame offsets:
#	150
#	27262
#	36247
#	50447
#	60245
#	79572
#	89800
#	105630
#	127860
#	145230
#	151877
#	176905
#
# Disc length: 2389 seconds
#
# Revision: 1
# Processed by: cddbd v1.5.1PL0 Copyright (c) Steve Scherf et al.
# Submitted via: CDex 1.50Beta5
#
DISCID=9709530c
DTITLE=RCサクセション - コブラの悩み
DYEAR=1990
DGENRE=Pop
TTITLE0=アイ・シャル・ビー・リリースト
TTITLE1=言論の自由
TTITLE2=コール・ミー
TTITLE3=ヘルプ!
TTITLE4=明日なき世界
TTITLE5=からすの赤ちゃん
TTITLE6=軽薄なジャーナリスト
TTITLE7=心配させないで…
TTITLE8=パラダイス
TTITLE9=俺は電気
TTITLE10=あきれて物も言えない
TTITLE11=君はLOVE ME TENDERを聴いたか?
EXTD=
EXTT0=
EXTT1=
EXTT2=
EXTT3=
EXTT4=
EXTT5=
EXTT6=
EXTT7=
EXTT8=
EXTT9=
EXTT10=
EXTT11=
PLAYORDER=
